<svg version="1.1" viewBox="0.0 0.0 188.9763779527559 188.9763779527559" fill="none" stroke="none" stroke-linecap="square" stroke-miterlimit="10" xmlns:xlink="http://www.w3.org/1999/xlink" xmlns="http://www.w3.org/2000/svg"><clipPath id="p.0"><path d="m0 0l188.97638 0l0 188.97638l-188.97638 0l0 -188.97638z" clip-rule="nonzero"/></clipPath><g clip-path="url(#p.0)"><path fill="#000000" fill-opacity="0.0" d="m0 0l188.97638 0l0 188.97638l-188.97638 0z" fill-rule="evenodd"/><defs><linearGradient id="p.1" gradientUnits="userSpaceOnUse" gradientTransform="matrix(11.561564807437867 11.561564807338751 -11.561564807338751 11.561564807437867 0.0 0.0)" spreadMethod="pad" x1="2.393709713682177" y1="-5.779363071852035" x2="2.3936678579721766" y2="5.782201735510069"><stop offset="0.0" stop-color="#ff0000"/><stop offset="1.0" stop-color="#ff0000" stop-opacity="0.2509804"/></linearGradient></defs><path fill="url(#p.1)" d="m27.65838 27.69168l0 0c36.91176 -36.911755 96.75754 -36.911755 133.66928 0l0 0c17.725662 17.72565 27.683823 41.766792 27.683823 66.83465c0 25.067856 -9.95816 49.108986 -27.683823 66.83465l0 0c-36.91175 36.91176 -96.75753 36.91176 -133.66928 0l0 0c-36.911755 -36.91176 -36.911755 -96.75754 0 -133.6693z" fill-rule="evenodd"/></g></svg>