<svg version="1.1" viewBox="0.0 0.0 188.9763779527559 188.9763779527559" fill="none" stroke="none" stroke-linecap="square" stroke-miterlimit="10" xmlns:xlink="http://www.w3.org/1999/xlink" xmlns="http://www.w3.org/2000/svg"><clipPath id="p.0"><path d="m0 0l188.97638 0l0 188.97638l-188.97638 0l0 -188.97638z" clip-rule="nonzero"/></clipPath><g clip-path="url(#p.0)"><path fill="#000000" fill-opacity="0.0" d="m0 0l188.97638 0l0 188.97638l-188.97638 0z" fill-rule="evenodd"/><defs><linearGradient id="p.1" gradientUnits="userSpaceOnUse" gradientTransform="matrix(-13.542608323031033 -3.3769306688727636 3.3769306688727636 -13.542608323031033 0.0 0.0)" spreadMethod="pad" x1="-14.978116165876408" y1="-11.703568833113238" x2="-14.978166116730407" y2="1.839039489825673"><stop offset="0.0" stop-color="#ff0000"/><stop offset="1.0" stop-color="#ff0000" stop-opacity="0.2509804"/></linearGradient></defs><path fill="url(#p.1)" d="m186.18694 117.37546l0 0c-12.628632 50.644943 -63.92199 81.46327 -114.56693 68.83464l0 0c-24.320564 -6.0644684 -45.235912 -21.54187 -58.144913 -43.027344c-12.908999 -21.485466 -16.754211 -47.219025 -10.689734 -71.53958l0 0c12.628621 -50.644947 63.92198 -81.46327 114.56693 -68.83465l0 0c50.644936 12.628621 81.463264 63.92198 68.83465 114.56693z" fill-rule="evenodd"/></g></svg>